<?xml version="1.0" encoding="utf-8"?>
<!-- Generator: Adobe Illustrator 24.0.3, SVG Export Plug-In . SVG Version: 6.00 Build 0)  -->
<svg version="1.1" id="Layer_1" xmlns="http://www.w3.org/2000/svg" xmlns:xlink="http://www.w3.org/1999/xlink" x="0px" y="0px"
	 viewBox="0 0 324 118" style="enable-background:new 0 0 324 118;" xml:space="preserve">
<style type="text/css">
	.st0{fill:#FFFFFF;}
	.st1{enable-background:new    ;}
	.st2{fill:#00AADA;}
</style>
<g>
	<rect x="55" y="34.6" class="st0" width="213.9" height="48.8"/>
	<g class="st1">
		<path class="st2" d="M73.6,50h4v14.3h7.3V68H73.6V50z"/>
		<path class="st2" d="M88.2,50h12.2v3.7h-8.3v3.4h7.8v3.7h-7.8v3.7h8.7V68H88.2V50z"/>
		<path class="st2" d="M111,50h3.3l7.8,18h-4.5l-1.6-3.8h-7l-1.5,3.8h-4.4L111,50z M112.5,55.3l-2.2,5.6h4.4L112.5,55.3z"/>
		<path class="st2" d="M124.9,50h7c0.9,0,1.8,0.1,2.6,0.3c0.8,0.2,1.5,0.5,2.2,0.9c0.6,0.4,1.1,1,1.5,1.7c0.4,0.7,0.5,1.6,0.5,2.6
			c0,1.3-0.3,2.4-1,3.2s-1.6,1.5-2.9,1.7l4.6,7.6h-4.8l-3.8-7.2h-2V68h-4V50z M128.9,57.5h2.3c0.4,0,0.7,0,1.1,0
			c0.4,0,0.8-0.1,1.1-0.2c0.3-0.1,0.6-0.3,0.8-0.6c0.2-0.3,0.3-0.7,0.3-1.1c0-0.5-0.1-0.8-0.3-1.1c-0.2-0.3-0.4-0.5-0.7-0.6
			c-0.3-0.1-0.6-0.2-1-0.3c-0.4-0.1-0.7-0.1-1.1-0.1h-2.6V57.5z"/>
		<path class="st2" d="M142.4,50h5.4l7.7,12.5h0.1V50h4v18h-5.2l-7.9-12.8h-0.1V68h-4V50z"/>
		<path class="st2" d="M172.6,50h6l4.1,11.7h0.1L187,50h6v18h-4V54.2h-0.1L184.2,68h-3l-4.6-13.8h-0.1V68h-4V50z"/>
		<path class="st2" d="M196.6,59c0-1.4,0.2-2.7,0.7-3.9c0.5-1.2,1.2-2.2,2-3c0.9-0.8,1.9-1.5,3.1-1.9s2.5-0.7,3.9-0.7
			c1.4,0,2.7,0.2,3.9,0.7c1.2,0.4,2.2,1.1,3.1,1.9c0.9,0.8,1.5,1.8,2,3c0.5,1.2,0.7,2.5,0.7,3.9c0,1.4-0.2,2.7-0.7,3.9
			c-0.5,1.2-1.2,2.2-2,3c-0.9,0.8-1.9,1.5-3.1,1.9c-1.2,0.4-2.5,0.7-3.9,0.7c-1.4,0-2.7-0.2-3.9-0.7s-2.2-1.1-3.1-1.9
			c-0.9-0.8-1.5-1.8-2-3C196.9,61.8,196.6,60.5,196.6,59z M200.8,59c0,0.8,0.1,1.6,0.4,2.3c0.3,0.7,0.6,1.3,1.1,1.8
			c0.5,0.5,1.1,0.9,1.8,1.2c0.7,0.3,1.5,0.4,2.3,0.4c0.8,0,1.6-0.1,2.3-0.4c0.7-0.3,1.3-0.7,1.8-1.2c0.5-0.5,0.9-1.1,1.1-1.8
			c0.3-0.7,0.4-1.5,0.4-2.3c0-0.8-0.1-1.6-0.4-2.3s-0.6-1.3-1.1-1.8c-0.5-0.5-1.1-0.9-1.8-1.2c-0.7-0.3-1.5-0.4-2.3-0.4
			c-0.8,0-1.6,0.1-2.3,0.4c-0.7,0.3-1.3,0.7-1.8,1.2s-0.9,1.1-1.1,1.8C200.9,57.4,200.8,58.2,200.8,59z"/>
		<path class="st2" d="M219.7,50h7c0.9,0,1.8,0.1,2.6,0.3s1.5,0.5,2.2,0.9c0.6,0.4,1.1,1,1.5,1.7c0.4,0.7,0.5,1.6,0.5,2.6
			c0,1.3-0.3,2.4-1,3.2s-1.6,1.5-2.9,1.7l4.6,7.6h-4.8l-3.8-7.2h-2V68h-4V50z M223.7,57.5h2.3c0.4,0,0.7,0,1.1,0s0.8-0.1,1.1-0.2
			c0.3-0.1,0.6-0.3,0.8-0.6c0.2-0.3,0.3-0.7,0.3-1.1c0-0.5-0.1-0.8-0.3-1.1c-0.2-0.3-0.4-0.5-0.7-0.6c-0.3-0.1-0.6-0.2-1-0.3
			c-0.4-0.1-0.7-0.1-1.1-0.1h-2.6V57.5z"/>
		<path class="st2" d="M237.4,50h12.2v3.7h-8.3v3.4h7.8v3.7h-7.8v3.7h8.7V68h-12.7V50z"/>
	</g>
</g>
</svg>
