<?xml version="1.0" encoding="utf-8"?>
<!-- Generator: Adobe Illustrator 24.0.3, SVG Export Plug-In . SVG Version: 6.00 Build 0)  -->
<svg version="1.1" id="Layer_1" xmlns="http://www.w3.org/2000/svg" xmlns:xlink="http://www.w3.org/1999/xlink" x="0px" y="0px"
	 viewBox="0 0 262.3 147.5" style="enable-background:new 0 0 262.3 147.5;" xml:space="preserve">
<style type="text/css">
	.st0{fill:#00AADB;}
	.st1{fill:#FFFFFF;}
</style>
<rect x="37.6" y="37.5" class="st0" width="151.6" height="36"/>
<g>
	<path class="st1" d="M64.5,46.8h4.2l4.2,11.1h0l4.2-11.1h4l-7,16.9h-3L64.5,46.8z"/>
	<path class="st1" d="M84.4,46.8h11.5v3.4h-7.8v3.1h7.3v3.4h-7.3v3.4h8.2v3.4H84.4V46.8z"/>
	<path class="st1" d="M100.6,46.8h5.1l7.2,11.7h0V46.8h3.7v16.9h-4.9l-7.4-12h0v12h-3.7V46.8z"/>
	<path class="st1" d="M125.5,56.5l-6.3-9.7h4.6l3.6,6.3l3.8-6.3h4.4l-6.3,9.7v7.2h-3.7V56.5z"/>
	<path class="st1" d="M137.2,55.2c0-1.4,0.2-2.6,0.7-3.7c0.5-1.1,1.1-2,1.9-2.8c0.8-0.8,1.8-1.4,2.9-1.8c1.1-0.4,2.3-0.6,3.6-0.6
		c1.3,0,2.5,0.2,3.6,0.6c1.1,0.4,2.1,1,2.9,1.8c0.8,0.8,1.4,1.7,1.9,2.8c0.5,1.1,0.7,2.3,0.7,3.7c0,1.4-0.2,2.6-0.7,3.7
		c-0.5,1.1-1.1,2-1.9,2.8c-0.8,0.8-1.8,1.4-2.9,1.8c-1.1,0.4-2.3,0.6-3.6,0.6c-1.3,0-2.5-0.2-3.6-0.6c-1.1-0.4-2.1-1-2.9-1.8
		c-0.8-0.8-1.4-1.7-1.9-2.8C137.5,57.8,137.2,56.6,137.2,55.2z M141.1,55.2c0,0.8,0.1,1.5,0.4,2.2c0.2,0.7,0.6,1.2,1.1,1.7
		c0.5,0.5,1,0.9,1.7,1.1c0.6,0.3,1.4,0.4,2.2,0.4c0.8,0,1.5-0.1,2.2-0.4c0.6-0.3,1.2-0.6,1.7-1.1c0.5-0.5,0.8-1.1,1.1-1.7
		c0.2-0.7,0.4-1.4,0.4-2.2c0-0.8-0.1-1.5-0.4-2.2c-0.2-0.7-0.6-1.2-1.1-1.7c-0.5-0.5-1-0.9-1.7-1.1c-0.6-0.3-1.4-0.4-2.2-0.4
		c-0.8,0-1.5,0.1-2.2,0.4c-0.6,0.3-1.2,0.6-1.7,1.1c-0.5,0.5-0.8,1.1-1.1,1.7C141.2,53.7,141.1,54.4,141.1,55.2z"/>
	<path class="st1" d="M173.5,57.1c0,1-0.2,1.9-0.5,2.8c-0.3,0.8-0.8,1.6-1.3,2.2c-0.6,0.6-1.3,1.1-2.2,1.5c-0.9,0.3-1.9,0.5-3.1,0.5
		c-1.2,0-2.2-0.2-3.1-0.5c-0.9-0.3-1.6-0.8-2.2-1.5c-0.6-0.6-1-1.4-1.3-2.2c-0.3-0.8-0.5-1.8-0.5-2.8V46.8h3.7V57
		c0,0.5,0.1,1,0.3,1.5c0.2,0.4,0.4,0.8,0.7,1.2c0.3,0.3,0.7,0.6,1.1,0.8c0.4,0.2,0.9,0.3,1.4,0.3c0.5,0,0.9-0.1,1.4-0.3
		c0.4-0.2,0.8-0.4,1.1-0.8c0.3-0.3,0.5-0.7,0.7-1.2c0.2-0.4,0.3-0.9,0.3-1.5V46.8h3.7V57.1z"/>
</g>
<g>
	<path class="st1" d="M110.9,89.4c0.3-0.1,0.5-0.2,0.8-0.3c0.2-0.1,0.4-0.3,0.5-0.6c0.1-0.2,0.2-0.5,0.2-0.9c0-0.3-0.1-0.6-0.2-0.9
		c-0.2-0.2-0.3-0.4-0.6-0.5c-0.2-0.1-0.5-0.2-0.8-0.3c-0.3-0.1-0.6-0.1-0.9-0.1h-2.5v3.6h2.7C110.4,89.5,110.7,89.5,110.9,89.4z"/>
	<polygon class="st1" points="170,92.9 174.1,92.9 172,87.7 	"/>
	<path class="st1" d="M112.2,93c-0.3-0.1-0.6-0.2-1-0.3c-0.3,0-0.7-0.1-1-0.1h-2.8v3.8h3.3c0.3,0,0.6,0,0.9-0.1
		c0.3-0.1,0.6-0.2,0.8-0.3c0.2-0.2,0.4-0.4,0.6-0.6c0.2-0.3,0.2-0.6,0.2-0.9c0-0.4-0.1-0.7-0.3-1C112.7,93.3,112.5,93.1,112.2,93z"
		/>
	<path class="st1" d="M37.5,73.5v36h186.7v-36H37.5z M69.9,99.6h-3.7V82.8h3.7V99.6z M90.6,99.6h-4.9l-7.4-12h0v12h-3.7V82.8h5.1
		l7.2,11.7h0V82.8h3.7V99.6z M116.4,97.2c-0.4,0.6-0.9,1.1-1.5,1.4c-0.6,0.4-1.3,0.6-2,0.8c-0.8,0.2-1.5,0.2-2.3,0.2h-6.9V82.8h6.3
		c0.7,0,1.5,0.1,2.2,0.2c0.7,0.1,1.4,0.3,2,0.6c0.6,0.3,1.1,0.7,1.4,1.3c0.4,0.6,0.5,1.3,0.5,2.2c0,1-0.3,1.7-0.8,2.4
		c-0.5,0.6-1.2,1.1-2.1,1.3v0c0.6,0.1,1.1,0.2,1.5,0.5c0.5,0.2,0.8,0.5,1.2,0.9c0.3,0.4,0.6,0.8,0.8,1.3c0.2,0.5,0.3,1,0.3,1.5
		C116.9,95.8,116.8,96.6,116.4,97.2z M132.5,99.6h-11.9V82.8h11.5v3.4h-7.8v3.1h7.3v3.4h-7.3v3.4h8.2V99.6z M147.5,99.6h-10.6V82.8
		h3.7v13.5h6.9V99.6z M162.4,86.2h-7.6v3.4h7v3.4h-7v6.6H151V82.8h11.3V86.2z M176.8,99.6l-1.5-3.6h-6.6l-1.4,3.6h-4.1l7.3-16.9h3.1
		l7.3,16.9H176.8z M194.4,97c-0.3,0.7-0.8,1.3-1.4,1.7c-0.6,0.5-1.3,0.8-2.1,1c-0.8,0.2-1.6,0.3-2.5,0.3c-1.1,0-2.1-0.2-3.1-0.5
		c-0.9-0.3-1.8-0.9-2.6-1.6l2.6-2.9c0.4,0.5,0.9,0.9,1.4,1.2c0.6,0.3,1.2,0.4,1.8,0.4c0.3,0,0.6,0,0.9-0.1c0.3-0.1,0.6-0.2,0.8-0.3
		c0.2-0.1,0.4-0.3,0.6-0.5c0.2-0.2,0.2-0.5,0.2-0.8c0-0.5-0.2-0.9-0.6-1.2c-0.4-0.3-0.9-0.5-1.5-0.8c-0.6-0.2-1.2-0.4-1.9-0.6
		c-0.7-0.2-1.3-0.5-1.9-0.8c-0.6-0.3-1.1-0.8-1.5-1.4c-0.4-0.6-0.6-1.3-0.6-2.3c0-0.9,0.2-1.7,0.5-2.4c0.4-0.7,0.8-1.3,1.4-1.7
		c0.6-0.5,1.3-0.8,2.1-1c0.8-0.2,1.6-0.3,2.4-0.3c1,0,1.9,0.1,2.8,0.4c0.9,0.3,1.7,0.7,2.4,1.4l-2.6,2.8c-0.3-0.4-0.7-0.7-1.2-0.8
		c-0.5-0.2-1-0.3-1.5-0.3c-0.3,0-0.5,0-0.8,0.1c-0.3,0.1-0.6,0.2-0.8,0.3c-0.3,0.1-0.5,0.3-0.6,0.5c-0.2,0.2-0.2,0.5-0.2,0.8
		c0,0.5,0.2,0.9,0.6,1.2c0.4,0.3,0.9,0.5,1.4,0.7c0.6,0.2,1.2,0.4,1.9,0.6c0.7,0.2,1.3,0.5,1.9,0.8c0.6,0.3,1.1,0.8,1.4,1.4
		c0.4,0.6,0.6,1.4,0.6,2.4C195,95.4,194.8,96.3,194.4,97z M210.8,86H206v13.6h-3.7V86h-4.8v-3.3h13.4V86z"/>
</g>
</svg>
