<?xml version="1.0" encoding="utf-8"?>
<!-- Generator: Adobe Illustrator 24.0.3, SVG Export Plug-In . SVG Version: 6.00 Build 0)  -->
<svg version="1.1" id="Layer_1" xmlns="http://www.w3.org/2000/svg" xmlns:xlink="http://www.w3.org/1999/xlink" x="0px" y="0px"
	 viewBox="0 0 1000 402" style="enable-background:new 0 0 1000 402;" xml:space="preserve">
<style type="text/css">
	.st0{fill:#FFFFFF;}
</style>
<g>
	<g>
		<polygon class="st0" points="124,178 82.3,66.4 62,66.4 113.9,200.1 133.3,200.1 185.2,66.4 165.9,66.4 		"/>
		<polygon class="st0" points="240.6,139.6 298.7,139.6 298.7,123.3 240.6,123.3 240.6,82.8 305.6,82.8 305.6,66.4 222.1,66.4 
			222.1,200.1 308.1,200.1 308.1,183.7 240.6,183.7 		"/>
		<polygon class="st0" points="450.5,171.8 370.4,66.4 353.1,66.4 353.1,200.1 370.5,200.1 370.5,94.9 450.6,200.1 467.9,200.1 
			467.9,66.4 450.5,66.4 		"/>
		<path class="st0" d="M579.1,73.7l12.2,1.8c2.9,0.5,3.2,1,3.2,1c0.1,0.2,0,0.9-1.6,3.7l-27.4,49.4l-29-51.6c-0.4-0.7-1-1.8-1.1-2
			c0,0,0.5-0.4,2.6-0.7l11.1-1.5v-7.4H499v7.4l7.8,1.1c2.9,0.5,3.7,1.8,5.3,4.5l37.8,65.5v42.8c0,1.9,0,2.1-4.8,3l-14,2.2v7.4l59,0
			v-7.4l-14.2-2.2c-4.5-0.6-4.5-0.9-4.5-3v-46.9L606,80.6c2-3.5,3.7-5,6.2-5.6l6.7-1.4v-7.3h-39.8V73.7z"/>
		<path class="st0" d="M707.5,62.9c-39.4,0-65.8,27.5-65.8,68.5c0,41.3,27.7,71.2,65.8,71.2c38,0,65.6-30,65.6-71.2
			C773.1,91.1,746.1,62.9,707.5,62.9z M748.7,131.5c0,53-25.8,60.9-41.2,60.9c-9.7,0-41.4-4.4-41.4-60.9c0-21.8,5.4-58.4,41.4-58.4
			C745.8,73,748.7,117.8,748.7,131.5z"/>
		<path class="st0" d="M891.7,66.3v7.4l11.7,2c4.8,0.8,4.8,1.2,4.8,3V153c0,18.2-9.2,37.6-35.1,37.6c-18.6,0-30.6-14.1-30.6-36V78.7
			c0-1.8,0-2.2,4.6-3l12.2-2v-7.4h-55.1v7.4l11.7,2c4.8,0.8,4.8,1.2,4.8,3v75.8c0,29.7,19.5,48.2,50.9,48.2c30.4,0,50-19.5,50-49.8
			V78.7c0-1.9,0-2.2,4.6-3l11.9-2v-7.4H891.7z"/>
	</g>
	<path class="st0" d="M82.8,293.6L62,262.1h9.6l15,24.2l15.5-24.2h9.1l-20.8,31.6v23.5h-7.5V293.6z"/>
	<path class="st0" d="M106.6,298.7c0-2.7,0.5-5.2,1.5-7.5c1-2.3,2.4-4.4,4.2-6.1c1.8-1.8,3.8-3.1,6.2-4.2c2.4-1,5-1.5,7.7-1.5
		s5.3,0.5,7.7,1.5c2.4,1,4.5,2.4,6.2,4.2c1.8,1.8,3.1,3.8,4.2,6.1c1,2.3,1.5,4.8,1.5,7.5s-0.5,5.2-1.5,7.6s-2.4,4.4-4.2,6.1
		c-1.8,1.7-3.8,3.1-6.2,4.1c-2.4,1-5,1.5-7.7,1.5s-5.3-0.5-7.7-1.5c-2.4-1-4.5-2.4-6.2-4.1c-1.8-1.7-3.1-3.8-4.2-6.1
		C107.1,303.9,106.6,301.4,106.6,298.7z M114,298.7c0,1.9,0.3,3.6,0.9,5.2c0.6,1.6,1.4,2.9,2.4,4c1,1.1,2.3,2,3.8,2.6
		c1.5,0.6,3.2,1,5.1,1c1.9,0,3.6-0.3,5.1-1c1.5-0.6,2.8-1.5,3.8-2.6c1-1.1,1.8-2.5,2.4-4c0.6-1.6,0.9-3.3,0.9-5.2
		c0-1.9-0.3-3.6-0.9-5.2c-0.6-1.6-1.4-2.9-2.4-4c-1-1.1-2.3-2-3.8-2.6c-1.5-0.6-3.2-1-5.1-1c-1.9,0-3.6,0.3-5.1,1
		c-1.5,0.6-2.8,1.5-3.8,2.6c-1,1.1-1.8,2.5-2.4,4C114.3,295.1,114,296.8,114,298.7z"/>
	<path class="st0" d="M188.5,317.1h-7v-5.7h-0.2c-0.9,2-2.4,3.6-4.6,4.8c-2.2,1.2-4.7,1.8-7.5,1.8c-1.8,0-3.5-0.3-5.1-0.8
		c-1.6-0.5-3-1.4-4.2-2.5c-1.2-1.1-2.2-2.6-2.9-4.4c-0.7-1.8-1.1-3.9-1.1-6.3v-23.7h7V302c0,1.7,0.2,3.2,0.7,4.4
		c0.5,1.2,1.1,2.2,1.9,3c0.8,0.8,1.7,1.3,2.7,1.6c1,0.3,2.1,0.5,3.1,0.5c1.5,0,2.8-0.2,4-0.7c1.2-0.5,2.3-1.2,3.3-2.2
		c0.9-1,1.7-2.3,2.2-3.8s0.8-3.4,0.8-5.5v-19h7V317.1z"/>
	<path class="st0" d="M200.4,280.3h7v5.7h0.2c0.5-1,1.1-1.9,1.9-2.7c0.8-0.8,1.6-1.5,2.6-2.1c1-0.6,2-1,3.2-1.4
		c1.1-0.3,2.3-0.5,3.4-0.5c1.1,0,2.2,0.2,3.1,0.5l-0.3,7.5c-0.6-0.2-1.1-0.3-1.7-0.4c-0.6-0.1-1.1-0.2-1.7-0.2c-3.4,0-6,1-7.9,2.9
		c-1.8,1.9-2.7,4.9-2.7,8.9v18.5h-7V280.3z"/>
	<path class="st0" d="M250,262.1h7.8l12.2,44h0.2l13-44h8.6l12.9,44h0.2l12.2-44h7.8l-16,55.1h-7.9l-13.3-45h-0.2l-13.2,45h-7.9
		L250,262.1z"/>
	<path class="st0" d="M325.9,298.7c0-2.7,0.5-5.2,1.5-7.5c1-2.3,2.4-4.4,4.2-6.1c1.8-1.8,3.8-3.1,6.2-4.2c2.4-1,5-1.5,7.7-1.5
		s5.3,0.5,7.7,1.5c2.4,1,4.5,2.4,6.2,4.2c1.8,1.8,3.1,3.8,4.2,6.1c1,2.3,1.5,4.8,1.5,7.5s-0.5,5.2-1.5,7.6s-2.4,4.4-4.2,6.1
		c-1.8,1.7-3.8,3.1-6.2,4.1c-2.4,1-5,1.5-7.7,1.5s-5.3-0.5-7.7-1.5c-2.4-1-4.5-2.4-6.2-4.1c-1.8-1.7-3.1-3.8-4.2-6.1
		C326.4,303.9,325.9,301.4,325.9,298.7z M333.4,298.7c0,1.9,0.3,3.6,0.9,5.2c0.6,1.6,1.4,2.9,2.4,4c1,1.1,2.3,2,3.8,2.6
		c1.5,0.6,3.2,1,5.1,1s3.6-0.3,5.1-1c1.5-0.6,2.8-1.5,3.8-2.6c1-1.1,1.8-2.5,2.4-4c0.6-1.6,0.9-3.3,0.9-5.2c0-1.9-0.3-3.6-0.9-5.2
		c-0.6-1.6-1.4-2.9-2.4-4c-1-1.1-2.3-2-3.8-2.6c-1.5-0.6-3.2-1-5.1-1s-3.6,0.3-5.1,1c-1.5,0.6-2.8,1.5-3.8,2.6c-1,1.1-1.8,2.5-2.4,4
		C333.7,295.1,333.4,296.8,333.4,298.7z"/>
	<path class="st0" d="M375.2,280.3h7v5.7h0.2c0.5-1,1.1-1.9,1.9-2.7c0.8-0.8,1.6-1.5,2.6-2.1c1-0.6,2-1,3.2-1.4
		c1.1-0.3,2.3-0.5,3.4-0.5c1.1,0,2.2,0.2,3.1,0.5l-0.3,7.5c-0.6-0.2-1.1-0.3-1.7-0.4c-0.6-0.1-1.1-0.2-1.7-0.2c-3.4,0-6,1-7.9,2.9
		c-1.8,1.9-2.7,4.9-2.7,8.9v18.5h-7V280.3z"/>
	<path class="st0" d="M405.3,258.3h7v38l15.9-15.9h9.7l-17.2,16.7l18.7,20.1h-10L412.3,298v19.1h-7V258.3z"/>
	<path class="st0" d="M466.6,289.5c-0.8-1-1.9-1.9-3.1-2.6c-1.2-0.7-2.7-1.1-4.5-1.1c-1.7,0-3.1,0.4-4.3,1.1
		c-1.2,0.7-1.8,1.7-1.8,3.1c0,1.1,0.4,2,1.1,2.6c0.7,0.7,1.5,1.2,2.5,1.6c1,0.4,2,0.7,3.1,0.9c1.1,0.2,2,0.4,2.8,0.5
		c1.5,0.4,2.9,0.8,4.2,1.3c1.3,0.5,2.5,1.2,3.4,2c1,0.8,1.7,1.8,2.3,3c0.5,1.2,0.8,2.6,0.8,4.4c0,2.1-0.4,3.8-1.3,5.3
		c-0.9,1.5-2,2.7-3.4,3.6c-1.4,0.9-3,1.6-4.8,2s-3.6,0.6-5.4,0.6c-3.1,0-5.7-0.5-8-1.4c-2.3-0.9-4.4-2.6-6.2-5.1l5.3-4.4
		c1.1,1.1,2.4,2.2,3.8,3c1.4,0.9,3.1,1.3,5.1,1.3c0.9,0,1.8-0.1,2.7-0.3c0.9-0.2,1.7-0.5,2.4-0.9c0.7-0.4,1.3-0.9,1.7-1.5
		c0.4-0.6,0.7-1.3,0.7-2.1c0-1-0.3-1.9-1-2.6c-0.6-0.7-1.4-1.2-2.3-1.6c-0.9-0.4-1.9-0.7-2.9-0.9c-1-0.2-1.9-0.4-2.7-0.6
		c-1.5-0.4-2.9-0.8-4.3-1.2c-1.3-0.5-2.5-1.1-3.6-1.9c-1-0.8-1.9-1.8-2.5-3c-0.6-1.2-0.9-2.7-0.9-4.4c0-1.9,0.4-3.6,1.2-5
		c0.8-1.4,1.9-2.6,3.2-3.5c1.3-0.9,2.8-1.6,4.5-2.1c1.7-0.5,3.4-0.7,5.1-0.7c2.5,0,4.9,0.5,7.2,1.4c2.3,0.9,4.1,2.5,5.4,4.7
		L466.6,289.5z"/>
	<path class="st0" d="M482.9,280.3h7v5.3h0.2c1.3-2,3.2-3.5,5.6-4.6c2.4-1.1,4.8-1.6,7.3-1.6c2.9,0,5.4,0.5,7.7,1.5
		c2.3,1,4.3,2.4,5.9,4.1c1.6,1.8,2.9,3.8,3.8,6.2c0.9,2.4,1.3,4.9,1.3,7.6c0,2.7-0.4,5.3-1.3,7.7s-2.1,4.4-3.8,6.1
		c-1.6,1.7-3.6,3.1-5.9,4.1c-2.3,1-4.9,1.5-7.7,1.5c-2.6,0-5.1-0.6-7.5-1.7c-2.3-1.1-4.1-2.6-5.4-4.5h-0.2v27.2h-7V280.3z
		 M502,285.9c-1.9,0-3.6,0.3-5.1,1c-1.5,0.6-2.8,1.5-3.8,2.6c-1,1.1-1.8,2.5-2.4,4c-0.6,1.6-0.9,3.3-0.9,5.2c0,1.9,0.3,3.6,0.9,5.2
		c0.6,1.6,1.4,2.9,2.4,4c1,1.1,2.3,2,3.8,2.6c1.5,0.6,3.2,1,5.1,1c1.9,0,3.5-0.3,5.1-1c1.5-0.6,2.8-1.5,3.8-2.6c1-1.1,1.8-2.5,2.4-4
		c0.6-1.6,0.9-3.3,0.9-5.2c0-1.9-0.3-3.6-0.9-5.2c-0.6-1.6-1.4-2.9-2.4-4c-1-1.1-2.3-2-3.8-2.6C505.5,286.2,503.9,285.9,502,285.9z"
		/>
	<path class="st0" d="M531.9,284.8c2-1.8,4.3-3.2,6.8-4.1c2.6-0.9,5.2-1.4,7.8-1.4c2.7,0,5,0.3,7,1c1.9,0.7,3.5,1.6,4.8,2.7
		c1.2,1.1,2.2,2.4,2.8,3.9c0.6,1.5,0.9,3,0.9,4.6v18.8c0,1.3,0,2.5,0.1,3.6c0.1,1.1,0.1,2.1,0.2,3.1H556c-0.2-1.9-0.2-3.7-0.2-5.6
		h-0.2c-1.6,2.4-3.4,4.1-5.5,5.1c-2.1,1-4.6,1.5-7.4,1.5c-1.7,0-3.3-0.2-4.9-0.7c-1.6-0.5-2.9-1.2-4.1-2.1c-1.2-0.9-2.1-2.1-2.8-3.5
		c-0.7-1.4-1-3-1-4.8c0-2.4,0.5-4.4,1.6-6c1.1-1.6,2.5-2.9,4.4-3.9c1.8-1,4-1.7,6.5-2.2c2.5-0.4,5.1-0.7,7.9-0.7h5.1v-1.6
		c0-0.9-0.2-1.9-0.5-2.8c-0.4-0.9-0.9-1.8-1.6-2.5c-0.7-0.8-1.6-1.3-2.7-1.8c-1.1-0.4-2.4-0.7-3.9-0.7c-1.3,0-2.5,0.1-3.5,0.4
		c-1,0.3-1.9,0.6-2.8,1c-0.8,0.4-1.6,0.8-2.3,1.4c-0.7,0.5-1.3,1-1.9,1.5L531.9,284.8z M551.6,299.4c-1.7,0-3.4,0.1-5.1,0.3
		c-1.7,0.2-3.3,0.5-4.7,1.1s-2.6,1.2-3.5,2.2c-0.9,0.9-1.4,2.1-1.4,3.6c0,2.1,0.7,3.7,2.1,4.6c1.4,0.9,3.4,1.4,5.8,1.4
		c1.9,0,3.6-0.3,4.9-1c1.3-0.6,2.4-1.5,3.3-2.5c0.8-1,1.4-2.2,1.8-3.5c0.4-1.3,0.5-2.5,0.5-3.8v-2.3H551.6z"/>
	<path class="st0" d="M599.8,290.1c-1.3-1.3-2.7-2.4-4.1-3.1c-1.4-0.7-3.1-1.1-5.1-1.1c-1.9,0-3.6,0.4-5,1.1
		c-1.4,0.7-2.6,1.7-3.6,2.9c-1,1.2-1.7,2.6-2.2,4.2c-0.5,1.6-0.7,3.2-0.7,4.9c0,1.7,0.3,3.3,0.9,4.9c0.6,1.5,1.4,2.9,2.4,4
		c1,1.1,2.3,2,3.7,2.7c1.5,0.6,3.1,1,4.9,1c2,0,3.7-0.4,5.1-1c1.4-0.7,2.7-1.7,3.9-3.1l5,5c-1.8,2-3.9,3.5-6.3,4.4
		c-2.4,0.9-5,1.3-7.7,1.3c-2.9,0-5.5-0.5-7.8-1.4s-4.4-2.2-6.1-3.9c-1.7-1.7-3-3.7-4-6.1c-0.9-2.4-1.4-5-1.4-7.8
		c0-2.8,0.5-5.5,1.4-7.9c0.9-2.4,2.2-4.4,3.9-6.1c1.7-1.7,3.7-3,6.1-4c2.4-1,5-1.4,7.9-1.4c2.7,0,5.3,0.5,7.7,1.4
		c2.5,1,4.6,2.4,6.4,4.4L599.8,290.1z"/>
	<path class="st0" d="M617.5,301.3c0,1.6,0.4,3.1,1,4.4c0.7,1.3,1.6,2.5,2.8,3.4c1.1,0.9,2.5,1.7,4,2.2c1.5,0.5,3.1,0.8,4.7,0.8
		c2.2,0,4.1-0.5,5.7-1.5c1.6-1,3.1-2.3,4.4-4l5.3,4c-3.9,5-9.3,7.5-16.3,7.5c-2.9,0-5.5-0.5-7.9-1.5c-2.4-1-4.4-2.3-6-4.1
		c-1.6-1.7-2.9-3.8-3.8-6.1c-0.9-2.4-1.3-4.9-1.3-7.7s0.5-5.3,1.4-7.7c1-2.4,2.3-4.4,4-6.1c1.7-1.7,3.7-3.1,6-4.1
		c2.3-1,4.9-1.5,7.6-1.5c3.3,0,6,0.6,8.3,1.7c2.3,1.1,4.1,2.6,5.6,4.5c1.5,1.8,2.5,3.9,3.1,6.2c0.6,2.3,1,4.7,1,7v2.5H617.5z
		 M639.6,295.7c-0.1-1.6-0.3-3-0.7-4.3c-0.4-1.3-1.1-2.4-2-3.4c-0.9-1-2-1.7-3.3-2.3c-1.3-0.5-2.9-0.8-4.6-0.8c-1.7,0-3.3,0.3-4.7,1
		s-2.6,1.5-3.6,2.5c-1,1-1.7,2.2-2.3,3.5c-0.5,1.3-0.8,2.5-0.8,3.8H639.6z"/>
	<path class="st0" d="M681.5,262.1h19.4c3.5,0,6.4,0.5,8.7,1.4c2.3,1,4.1,2.2,5.4,3.7s2.2,3.1,2.8,5c0.5,1.8,0.8,3.6,0.8,5.3
		c0,1.7-0.3,3.5-0.8,5.3c-0.5,1.8-1.4,3.5-2.8,5c-1.3,1.5-3.1,2.7-5.4,3.7c-2.3,1-5.2,1.4-8.7,1.4H689v24.3h-7.5V262.1z M689,286.3
		h9.8c1.5,0,2.9-0.1,4.3-0.4s2.7-0.7,3.8-1.3c1.1-0.6,2-1.5,2.7-2.7c0.7-1.2,1-2.7,1-4.5s-0.3-3.4-1-4.5c-0.7-1.2-1.6-2.1-2.7-2.7
		c-1.1-0.6-2.4-1.1-3.8-1.3s-2.9-0.4-4.3-0.4H689V286.3z"/>
	<path class="st0" d="M725.5,284.8c2-1.8,4.3-3.2,6.8-4.1c2.6-0.9,5.2-1.4,7.8-1.4c2.7,0,5,0.3,7,1c1.9,0.7,3.5,1.6,4.8,2.7
		c1.2,1.1,2.2,2.4,2.8,3.9c0.6,1.5,0.9,3,0.9,4.6v18.8c0,1.3,0,2.5,0.1,3.6c0.1,1.1,0.1,2.1,0.2,3.1h-6.2c-0.2-1.9-0.2-3.7-0.2-5.6
		h-0.2c-1.6,2.4-3.4,4.1-5.5,5.1c-2.1,1-4.6,1.5-7.4,1.5c-1.7,0-3.3-0.2-4.9-0.7c-1.6-0.5-2.9-1.2-4.1-2.1c-1.2-0.9-2.1-2.1-2.8-3.5
		s-1-3-1-4.8c0-2.4,0.5-4.4,1.6-6c1.1-1.6,2.5-2.9,4.4-3.9c1.8-1,4-1.7,6.5-2.2c2.5-0.4,5.1-0.7,7.9-0.7h5.1v-1.6
		c0-0.9-0.2-1.9-0.5-2.8c-0.4-0.9-0.9-1.8-1.6-2.5c-0.7-0.8-1.6-1.3-2.7-1.8c-1.1-0.4-2.4-0.7-3.9-0.7c-1.3,0-2.5,0.1-3.5,0.4
		c-1,0.3-1.9,0.6-2.8,1c-0.8,0.4-1.6,0.8-2.3,1.4c-0.7,0.5-1.3,1-1.9,1.5L725.5,284.8z M745.3,299.4c-1.7,0-3.4,0.1-5.1,0.3
		c-1.7,0.2-3.3,0.5-4.7,1.1c-1.4,0.5-2.6,1.2-3.5,2.2c-0.9,0.9-1.4,2.1-1.4,3.6c0,2.1,0.7,3.7,2.1,4.6c1.4,0.9,3.4,1.4,5.8,1.4
		c1.9,0,3.6-0.3,4.9-1s2.4-1.5,3.3-2.5c0.8-1,1.4-2.2,1.8-3.5c0.4-1.3,0.5-2.5,0.5-3.8v-2.3H745.3z"/>
	<path class="st0" d="M767.1,280.3h7v5.7h0.2c0.5-1,1.1-1.9,1.9-2.7c0.8-0.8,1.6-1.5,2.6-2.1c1-0.6,2-1,3.1-1.4
		c1.1-0.3,2.3-0.5,3.4-0.5c1.1,0,2.2,0.2,3.1,0.5l-0.3,7.5c-0.6-0.2-1.1-0.3-1.7-0.4c-0.6-0.1-1.1-0.2-1.7-0.2c-3.4,0-6,1-7.9,2.9
		c-1.8,1.9-2.7,4.9-2.7,8.9v18.5h-7V280.3z"/>
	<path class="st0" d="M816.9,286.3h-10v16.7c0,1,0,2.1,0.1,3.1c0.1,1,0.2,1.9,0.6,2.7c0.3,0.8,0.9,1.5,1.6,1.9
		c0.7,0.5,1.7,0.7,3.1,0.7c0.8,0,1.7-0.1,2.6-0.2c0.9-0.2,1.7-0.4,2.4-0.9v6.4c-0.8,0.5-1.9,0.8-3.2,1c-1.3,0.2-2.3,0.3-3.1,0.3
		c-2.7,0-4.8-0.4-6.3-1.1c-1.5-0.8-2.6-1.7-3.3-2.9c-0.7-1.2-1.1-2.5-1.2-4c-0.1-1.5-0.2-3-0.2-4.5v-19.2h-8.1v-6.1h8.1v-10.3h7
		v10.3h10V286.3z"/>
	<path class="st0" d="M827.3,280.3h7v5.7h0.2c0.9-2,2.4-3.6,4.6-4.8c2.2-1.2,4.7-1.8,7.5-1.8c1.8,0,3.5,0.3,5.1,0.8
		c1.6,0.5,3.1,1.4,4.3,2.5c1.2,1.1,2.2,2.6,2.9,4.4c0.7,1.8,1.1,3.9,1.1,6.3v23.7h-7v-21.8c0-1.7-0.2-3.2-0.7-4.4
		c-0.5-1.2-1.1-2.2-1.9-3c-0.8-0.8-1.7-1.3-2.7-1.6c-1-0.3-2.1-0.5-3.1-0.5c-1.5,0-2.8,0.2-4,0.7c-1.2,0.5-2.3,1.2-3.3,2.2
		c-0.9,1-1.7,2.3-2.2,3.8c-0.5,1.6-0.8,3.4-0.8,5.5v19h-7V280.3z"/>
	<path class="st0" d="M877.1,301.3c0,1.6,0.4,3.1,1,4.4c0.7,1.3,1.6,2.5,2.8,3.4c1.1,0.9,2.5,1.7,4,2.2c1.5,0.5,3.1,0.8,4.7,0.8
		c2.2,0,4.1-0.5,5.7-1.5c1.6-1,3.1-2.3,4.4-4l5.3,4c-3.9,5-9.3,7.5-16.3,7.5c-2.9,0-5.5-0.5-7.9-1.5c-2.4-1-4.4-2.3-6-4.1
		c-1.6-1.7-2.9-3.8-3.8-6.1c-0.9-2.4-1.3-4.9-1.3-7.7s0.5-5.3,1.4-7.7c1-2.4,2.3-4.4,4-6.1c1.7-1.7,3.7-3.1,6-4.1
		c2.3-1,4.9-1.5,7.6-1.5c3.3,0,6,0.6,8.3,1.7c2.3,1.1,4.1,2.6,5.6,4.5c1.5,1.8,2.5,3.9,3.1,6.2c0.6,2.3,1,4.7,1,7v2.5H877.1z
		 M899.2,295.7c-0.1-1.6-0.3-3-0.7-4.3c-0.4-1.3-1.1-2.4-2-3.4c-0.9-1-2-1.7-3.3-2.3c-1.3-0.5-2.9-0.8-4.6-0.8c-1.7,0-3.3,0.3-4.7,1
		s-2.6,1.5-3.6,2.5c-1,1-1.7,2.2-2.3,3.5c-0.5,1.3-0.8,2.5-0.8,3.8H899.2z"/>
	<path class="st0" d="M916.4,280.3h7v5.7h0.2c0.5-1,1.1-1.9,1.9-2.7c0.8-0.8,1.6-1.5,2.6-2.1c1-0.6,2-1,3.1-1.4
		c1.1-0.3,2.3-0.5,3.4-0.5c1.1,0,2.2,0.2,3.1,0.5l-0.3,7.5c-0.6-0.2-1.1-0.3-1.7-0.4c-0.6-0.1-1.1-0.2-1.7-0.2c-3.4,0-6,1-7.9,2.9
		c-1.8,1.9-2.7,4.9-2.7,8.9v18.5h-7V280.3z"/>
</g>
</svg>
